<svg width="30" height="46" viewBox="0 0 30 46" fill="none" xmlns="http://www.w3.org/2000/svg">
<path d="M28.0684 26.3212C26.8108 27.7547 25.2796 28.9275 23.5562 29.7778V34.6647C23.5562 35.0967 23.3845 35.5111 23.079 35.8165C22.7736 36.122 22.3592 36.2937 21.9272 36.2937H12.1535C11.7215 36.2937 11.3071 36.122 11.0016 35.8165C10.6962 35.5111 10.5245 35.0967 10.5245 34.6647V29.7778C7.09183 28.0644 4.46757 25.0736 3.21491 21.4473C1.96225 17.821 2.18102 13.8481 3.82426 10.3813C5.46751 6.91445 8.40429 4.22989 12.0044 2.90371C15.6044 1.57754 19.5809 1.71544 23.0805 3.28782M10.5245 44.3374H23.5562" stroke="#053D60" stroke-opacity="0.75" stroke-width="3.25791" stroke-linecap="round" stroke-linejoin="round"/>
</svg>
