<svg width="60" height="49" viewBox="0 0 60 49" fill="none" xmlns="http://www.w3.org/2000/svg">
<path d="M11.5396 22.2354C12.0607 22.2354 12.5433 22.3319 12.9872 22.5249C13.4312 22.7179 13.8172 22.9785 14.1453 23.3066C14.4735 23.6348 14.7437 24.0304 14.956 24.4937C15.1683 24.9569 15.2648 25.4395 15.2455 25.9413C15.2455 26.4625 15.149 26.945 14.956 27.3889C14.763 27.8329 14.5024 28.2189 14.1743 28.547C13.8462 28.8752 13.4505 29.1454 12.9872 29.3577C12.524 29.57 12.0414 29.6665 11.5396 29.6472C11.0185 29.6472 10.5359 29.5507 10.092 29.3577C9.64804 29.1647 9.26201 28.9041 8.93388 28.576C8.60575 28.2479 8.33553 27.8522 8.12321 27.3889C7.91089 26.9257 7.81438 26.4431 7.83368 25.9413C7.83368 25.4202 7.93019 24.9376 8.12321 24.4937C8.31623 24.0497 8.5768 23.6637 8.90493 23.3356C9.23305 23.0075 9.62874 22.7372 10.092 22.5249C10.5552 22.3126 11.0378 22.2161 11.5396 22.2354ZM48.5988 22.2354C49.1199 22.2354 49.6025 22.3319 50.0464 22.5249C50.4904 22.7179 50.8764 22.9785 51.2045 23.3066C51.5326 23.6348 51.8029 24.0304 52.0152 24.4937C52.2275 24.9569 52.324 25.4395 52.3047 25.9413C52.3047 26.4625 52.2082 26.945 52.0152 27.3889C51.8222 27.8329 51.5616 28.2189 51.2335 28.547C50.9053 28.8752 50.5097 29.1454 50.0464 29.3577C49.5832 29.57 49.1006 29.6665 48.5988 29.6472C48.0776 29.6472 47.5951 29.5507 47.1512 29.3577C46.7072 29.1647 46.3212 28.9041 45.9931 28.576C45.6649 28.2479 45.3947 27.8522 45.1824 27.3889C44.9701 26.9257 44.8736 26.4431 44.8929 25.9413C44.8929 25.4202 44.9894 24.9376 45.1824 24.4937C45.3754 24.0497 45.636 23.6637 45.9641 23.3356C46.2922 23.0075 46.6879 22.7372 47.1512 22.5249C47.6144 22.3126 48.0969 22.2161 48.5988 22.2354ZM58.6453 14.8236L56.7344 16.7055C56.773 16.802 56.8696 17.0915 57.024 17.574C57.1784 18.0566 57.3617 18.626 57.5741 19.2822C57.7864 19.9385 58.0277 20.643 58.2979 21.3958C58.5681 22.1485 58.7997 22.8337 58.9927 23.4514C59.1858 24.069 59.3595 24.5902 59.5139 25.0148C59.6683 25.4395 59.7358 25.6518 59.7165 25.6518V44.4709C59.7165 44.992 59.62 45.4746 59.427 45.9185C59.234 46.3625 58.9734 46.7485 58.6453 47.0766C58.3172 47.4048 57.9215 47.675 57.4583 47.8873C56.995 48.0996 56.5125 48.1961 56.0106 48.1768H52.3047C51.7836 48.1768 51.301 48.0803 50.8571 47.8873C50.4131 47.6943 50.0271 47.4337 49.699 47.1056C49.3709 46.7774 49.1006 46.3818 48.8883 45.9185C48.676 45.4553 48.5795 44.9727 48.5988 44.4709H11.5396C11.5396 44.992 11.4431 45.4746 11.2501 45.9185C11.0571 46.3625 10.7965 46.7485 10.4684 47.0766C10.1402 47.4048 9.74455 47.675 9.28131 47.8873C8.81807 48.0996 8.33553 48.1961 7.83368 48.1768H4.12776C3.60662 48.1768 3.12408 48.0803 2.68014 47.8873C2.2362 47.6943 1.85017 47.4337 1.52204 47.1056C1.19391 46.7774 0.923689 46.3818 0.711371 45.9185C0.499053 45.4553 0.402545 44.9727 0.421846 44.4709V25.6518L0.624514 25.0438L1.14566 23.4803L1.84052 21.3958C2.09144 20.643 2.32306 19.9385 2.53538 19.2822C2.7477 18.626 2.94071 18.0566 3.11443 17.574C3.28814 17.0915 3.38465 16.802 3.40395 16.7055L1.49309 14.8236H0.421846V11.1176H3.05652L4.70681 12.7969L6.8493 6.34047C7.15813 5.39469 7.60206 4.53577 8.18111 3.7637C8.76016 2.99163 9.44537 2.32573 10.2367 1.76598C11.0281 1.20623 11.8677 0.771944 12.7556 0.463118C13.6435 0.154291 14.6086 -0.00012207 15.6509 -0.00012207H44.4875C45.4912 -0.00012207 46.4467 0.154291 47.3538 0.463118C48.261 0.771944 49.1103 1.19658 49.9017 1.73703C50.693 2.27747 51.3686 2.94338 51.9283 3.73475C52.4881 4.52612 52.9417 5.39469 53.2891 6.34047L55.4316 12.7969L57.0819 11.1176H59.7165V14.8236H58.6453ZM15.6509 3.7058C14.4349 3.7058 13.354 4.05323 12.4082 4.74809C11.4624 5.44295 10.7868 6.35977 10.3815 7.49857L7.92054 14.8236H52.2179L49.7569 7.49857C49.3709 6.35977 48.705 5.44295 47.7592 4.74809C46.8134 4.05323 45.7228 3.7058 44.4875 3.7058H15.6509ZM41.187 39.3463L38.1759 33.3531H21.9625L18.9514 39.3463V40.765H41.187V39.3463ZM56.0106 40.765V26.2308L55.8369 25.7097C55.7211 25.3623 55.5763 24.9087 55.4026 24.3489C55.2289 23.7892 55.0262 23.2005 54.7946 22.5828C54.563 21.9652 54.3603 21.3572 54.1866 20.7588C54.0129 20.1605 53.8488 19.6683 53.6944 19.2822C53.54 18.8962 53.4532 18.6453 53.4339 18.5295H6.70454C6.66593 18.626 6.57908 18.8769 6.44396 19.2822C6.30885 19.6876 6.14479 20.1701 5.95177 20.7299C5.75876 21.2896 5.55609 21.8976 5.34377 22.5539C5.13145 23.2101 4.93843 23.8085 4.76472 24.3489C4.591 24.8894 4.43659 25.3333 4.30148 25.6807C4.16637 26.0282 4.10846 26.2115 4.12776 26.2308V40.765H15.2455V38.4777L19.6463 29.6472H40.4921L44.8929 38.4777V40.765H56.0106Z" fill="#053D60" fill-opacity="0.75"/>
</svg>
