<svg width="40" height="44" viewBox="0 0 40 44" fill="none" xmlns="http://www.w3.org/2000/svg">
<path d="M19.068 39.441C27.1148 39.441 33.638 32.9178 33.638 24.871C33.638 16.8242 27.1148 10.301 19.068 10.301C11.0212 10.301 4.49799 16.8242 4.49799 24.871C4.49799 32.9178 11.0212 39.441 19.068 39.441Z" fill="white"/>
<path d="M38.593 1L19.079 29.2L8.50696 18.968V23.999L19.462 34.742L38.593 6.99V1Z" fill="#053D60" fill-opacity="0.75"/>
<path d="M35.679 17.6939C36.6176 19.9112 37.0992 22.2951 37.095 24.7029C37.095 34.6439 29.036 42.7029 19.095 42.7029C9.15397 42.7029 1.09497 34.6439 1.09497 24.7029C1.09497 14.7619 9.15397 6.70288 19.095 6.70288C22.362 6.70288 25.425 7.57288 28.066 9.09488" stroke="#053D60" stroke-opacity="0.75" stroke-width="2" stroke-linecap="round" stroke-linejoin="round"/>
<path d="M38.169 1.47388L19.095 29.0359L8.76196 19.0359V23.9529L19.47 34.4529L38.169 7.32788V1.47388Z" stroke="#053D60" stroke-opacity="0.75" stroke-width="2" stroke-linecap="round" stroke-linejoin="round"/>
</svg>
