<svg width="44" height="44" viewBox="0 0 44 44" fill="none" xmlns="http://www.w3.org/2000/svg">
<path d="M30.8917 0H13.1066C9.63144 0.0040839 6.29983 1.38654 3.84273 3.84405C1.38564 6.30155 0.00374374 9.63339 0.000244141 13.1085L0.000244141 30.8937C0.00432804 34.3688 1.38678 37.7004 3.84429 40.1575C6.3018 42.6146 9.63364 43.9965 13.1088 44H30.8939C34.3691 43.9959 37.7007 42.6135 40.1578 40.156C42.6148 37.6984 43.9967 34.3666 44.0002 30.8915V13.1063C43.9962 9.63119 42.6137 6.29958 40.1562 3.84249C37.6987 1.3854 34.3668 0.0034996 30.8917 0ZM39.5749 30.8915C39.5749 32.0318 39.3503 33.1609 38.9139 34.2144C38.4776 35.2679 37.838 36.2251 37.0317 37.0314C36.2253 37.8377 35.2681 38.4773 34.2146 38.9137C33.1611 39.3501 32.032 39.5747 30.8917 39.5747H13.1066C10.804 39.5741 8.596 38.659 6.96806 37.0306C5.34012 35.4023 4.42559 33.194 4.42559 30.8915V13.1063C4.42617 10.8038 5.34126 8.59575 6.96962 6.96781C8.59797 5.33988 10.8062 4.42534 13.1088 4.42534H30.8939C33.1965 4.42593 35.4045 5.34102 37.0324 6.96937C38.6604 8.59772 39.5749 10.806 39.5749 13.1085V30.8915Z" fill="white"/>
<path d="M21.9991 10.6203C18.983 10.625 16.0917 11.8254 13.9592 13.9583C11.8267 16.0912 10.6269 18.9827 10.6228 21.9988C10.6263 25.0157 11.8262 27.9081 13.9592 30.0416C16.0923 32.1751 18.9844 33.3755 22.0013 33.3796C25.0186 33.3761 27.9113 32.1759 30.0448 30.0424C32.1784 27.9088 33.3785 25.0161 33.382 21.9988C33.3774 18.9819 32.1764 16.09 30.0425 13.9574C27.9086 11.8247 25.016 10.6254 21.9991 10.6225V10.6203ZM21.9991 28.9542C20.155 28.9542 18.3865 28.2217 17.0825 26.9177C15.7785 25.6137 15.0459 23.8451 15.0459 22.001C15.0459 20.157 15.7785 18.3884 17.0825 17.0844C18.3865 15.7804 20.155 15.0479 21.9991 15.0479C23.8432 15.0479 25.6118 15.7804 26.9157 17.0844C28.2197 18.3884 28.9523 20.157 28.9523 22.001C28.9523 23.8451 28.2197 25.6137 26.9157 26.9177C25.6118 28.2217 23.8432 28.9542 21.9991 28.9542Z" fill="white"/>
<path d="M33.402 13.4324C34.9076 13.4324 36.1281 12.2119 36.1281 10.7063C36.1281 9.20065 34.9076 7.9801 33.402 7.9801C31.8963 7.9801 30.6758 9.20065 30.6758 10.7063C30.6758 12.2119 31.8963 13.4324 33.402 13.4324Z" fill="white"/>
</svg>
