<svg width="37" height="56" viewBox="0 0 37 56" fill="none" xmlns="http://www.w3.org/2000/svg">
<path d="M31.9662 12.9074C28.9389 7.77819 24.6411 3.51548 19.4872 0.530333L18.5702 0L17.6533 0.530333C12.4117 3.55529 8.05923 7.90743 5.03388 13.1488C2.00852 18.3902 0.416997 24.336 0.419436 30.3878C0.419436 30.7821 0.426303 31.1825 0.439693 31.578C0.621888 36.9404 2.67261 41.4526 6.37017 44.6267C9.19968 47.0558 12.8292 48.5386 16.7396 48.8923V55.2173H20.4018V25.9197H16.7391V45.2067C10.5518 44.4899 4.39373 40.1191 4.09949 31.4535C4.08736 31.0993 4.08118 30.7408 4.08118 30.3878C4.09212 25.1623 5.42669 20.0246 7.96036 15.4544C10.494 10.8842 14.1442 7.03028 18.5702 4.25239C22.9962 7.03034 26.6463 10.8842 29.1798 15.4545C31.7134 20.0247 33.0479 25.1623 33.0588 30.3878C33.0588 30.7408 33.0526 31.0993 33.0405 31.4536C32.8052 38.3858 28.8167 42.5692 24.0631 44.3327V48.2085C26.5298 47.5093 28.8173 46.2877 30.7703 44.6265C34.4679 41.4524 36.5186 36.9402 36.7008 31.5779C36.7142 31.1824 36.721 30.782 36.721 30.3877C36.7243 24.241 35.0826 18.2055 31.9662 12.9074Z" fill="#053D60" fill-opacity="0.75"/>
</svg>
