<svg width="44" height="44" viewBox="0 0 44 44" fill="none" xmlns="http://www.w3.org/2000/svg">
<path fill-rule="evenodd" clip-rule="evenodd" d="M6.28596 0C4.61888 0 3.02009 0.662243 1.84129 1.84104C0.662487 3.01984 0.000244141 4.61864 0.000244141 6.28571V37.7143C0.000244141 39.3814 0.662487 40.9802 1.84129 42.159C3.02009 43.3378 4.61888 44 6.28596 44H37.7145C39.3816 44 40.9804 43.3378 42.1592 42.159C43.338 40.9802 44.0002 39.3814 44.0002 37.7143V6.28571C44.0002 4.61864 43.338 3.01984 42.1592 1.84104C40.9804 0.662243 39.3816 0 37.7145 0H6.28596ZM9.74939 13.5049C10.7455 13.5049 11.7007 13.1092 12.4051 12.4048C13.1094 11.7005 13.5051 10.7452 13.5051 9.74914C13.5051 8.75307 13.1094 7.79778 12.4051 7.09345C11.7007 6.38912 10.7455 5.99343 9.74939 5.99343C8.75331 5.99343 7.79803 6.38912 7.0937 7.09345C6.38936 7.79778 5.99367 8.75307 5.99367 9.74914C5.99367 10.7452 6.38936 11.7005 7.0937 12.4048C7.79803 13.1092 8.75331 13.5049 9.74939 13.5049ZM12.8922 37.1266V16.4497H6.60653V37.1266H12.8922ZM17.066 16.4497H23.3517V19.2186C24.2788 17.7666 26.3154 15.8117 30.1025 15.8117C34.622 15.8117 37.0765 18.8069 37.0765 24.5049C37.0765 24.7783 37.1017 26.026 37.1017 26.026V37.1234H30.816V26.0291C30.816 24.5049 30.4954 21.5097 27.1074 21.5097C23.7162 21.5097 23.4302 25.2749 23.3517 27.7389V37.1234H17.066V16.4497Z" fill="white"/>
</svg>
