<svg width="32" height="24" viewBox="0 0 32 24" fill="none" xmlns="http://www.w3.org/2000/svg">
<path d="M30 0H2C1.46957 0 0.960859 0.210714 0.585786 0.585786C0.210714 0.960859 0 1.46957 0 2V22C0 22.5304 0.210714 23.0391 0.585786 23.4142C0.960859 23.7893 1.46957 24 2 24H30C30.5304 24 31.0391 23.7893 31.4142 23.4142C31.7893 23.0391 32 22.5304 32 22V2C32 1.46957 31.7893 0.960859 31.4142 0.585786C31.0391 0.210714 30.5304 0 30 0ZM28.46 22H3.66L10.66 14.76L9.22 13.37L2 20.84V3.52L14.43 15.89C14.8047 16.2625 15.3116 16.4716 15.84 16.4716C16.3684 16.4716 16.8753 16.2625 17.25 15.89L30 3.21V20.71L22.64 13.35L21.23 14.76L28.46 22ZM3.31 2H28.38L15.84 14.47L3.31 2Z" fill="#053D60" fill-opacity="0.75"/>
</svg>
