<svg width="22" height="29" viewBox="0 0 22 29" fill="none" xmlns="http://www.w3.org/2000/svg">
<path d="M4.0351 0.673076L5.7131 0.16838C6.63232 -0.108809 7.621 -0.0420818 8.49464 0.356109C9.36827 0.7543 10.0672 1.45675 10.461 2.33239L11.7579 5.21677C12.0965 5.96993 12.1908 6.81019 12.0276 7.61966C11.8643 8.42913 11.4518 9.16718 10.8478 9.73027L8.69814 11.7332C8.63534 11.7918 8.59556 11.8708 8.58598 11.9561C8.52272 12.5269 8.9095 13.6384 9.80243 15.1841C10.4495 16.3071 11.0376 17.0965 11.5365 17.538C11.8859 17.8471 12.0772 17.9132 12.1591 17.8902L15.0492 17.0059C15.8385 16.7645 16.6835 16.7761 17.4659 17.0391C18.2482 17.3022 18.9286 17.8034 19.4118 18.4726L21.2523 21.0262C21.8126 21.8027 22.0721 22.756 21.9827 23.7093C21.8933 24.6626 21.4611 25.5511 20.7663 26.2098L19.4909 27.4176C18.8147 28.0579 17.9843 28.5122 17.0804 28.7362C16.1765 28.9602 15.2301 28.9463 14.3332 28.6959C10.3733 27.5902 6.82314 24.2485 3.64256 18.74C0.459095 13.2243 -0.659574 8.47357 0.372822 4.48633C0.604573 3.58957 1.06341 2.76764 1.70512 2.09974C2.34683 1.43184 3.14833 0.940497 4.0351 0.673076ZM4.65914 2.73931C4.12696 2.89935 3.64498 3.19378 3.25966 3.59422C2.87433 3.99466 2.59865 4.4876 2.45918 5.02553C1.59358 8.37867 2.58428 12.5902 5.5118 17.6616C8.43644 22.7258 11.584 25.6893 14.9155 26.6196C15.4537 26.7697 16.0216 26.7779 16.5638 26.6433C17.1061 26.5087 17.6043 26.236 18.0098 25.8518L19.2838 24.6439C19.5999 24.3446 19.7965 23.9406 19.8372 23.5072C19.878 23.0738 19.76 22.6403 19.5052 22.2873L17.6647 19.735C17.4451 19.4305 17.1357 19.2024 16.7798 19.0827C16.4239 18.9631 16.0395 18.9579 15.6805 19.0679L12.7831 19.955C11.1008 20.4554 9.57524 19.1024 7.93606 16.2626C6.8289 14.3502 6.31414 12.8692 6.44354 11.7174C6.50969 11.1193 6.78864 10.5671 7.22719 10.1559L9.37682 8.15292C9.65124 7.89683 9.8386 7.56124 9.91261 7.19325C9.98662 6.82527 9.94357 6.44334 9.78949 6.10107L8.49396 3.21668C8.31494 2.81866 7.99722 2.49937 7.60008 2.3184C7.20295 2.13743 6.75353 2.10713 6.3357 2.23317L4.65914 2.73931Z" fill="#053D60" fill-opacity="0.75"/>
</svg>
