<svg width="163" height="177" viewBox="0 0 163 177" fill="none" xmlns="http://www.w3.org/2000/svg">
<g clip-path="url(#clip0_24_470)">
<g filter="url(#filter0_d_24_470)">
<circle cx="91.9089" cy="105.375" r="71" fill="#053D60" fill-opacity="0.75"/>
<path d="M65.2209 121.631C65.7276 122.14 66.1158 122.754 66.358 123.43C66.6001 124.106 66.6902 124.827 66.6218 125.541C66.2779 128.849 65.6276 132.117 64.6791 135.304C71.4884 133.727 75.6473 131.902 77.5363 130.945C78.6078 130.402 79.8417 130.273 81.002 130.584C84.3276 131.474 87.7563 131.92 91.1989 131.911C110.704 131.911 125.368 118.21 125.368 102.624C125.368 87.0379 110.704 73.3363 91.1989 73.3363C71.6935 73.3363 57.0302 87.0428 57.0302 102.624C57.0302 109.789 60.0419 116.438 65.2209 121.631ZM62.8145 140.693C61.6579 140.922 60.4976 141.132 59.3341 141.322C58.3579 141.479 57.6159 140.463 58.0015 139.555C58.4338 138.533 58.831 137.496 59.1926 136.446L59.2072 136.397C60.4178 132.883 61.4038 128.841 61.765 125.078C55.7757 119.074 52.1489 111.215 52.1489 102.624C52.1489 83.7529 69.6336 68.455 91.1989 68.455C112.764 68.455 130.249 83.7529 130.249 102.624C130.249 121.495 112.764 136.793 91.1989 136.793C87.3311 136.801 83.479 136.299 79.7426 135.299C77.2044 136.583 71.7423 138.921 62.8145 140.693Z" fill="white"/>
<g filter="url(#filter1_d_24_470)">
<path d="M16.5627 45.5842C16.3668 45.0915 16.1356 44.6188 15.869 44.166C15.6032 43.6854 15.3212 43.288 15.0231 42.9736C14.7114 42.645 14.028 42.1534 12.9729 41.4987C11.1908 40.4208 10.0281 39.8816 9.4849 39.8812L9.21404 39.8531C8.98987 39.9029 8.82359 39.8706 8.71519 39.7564C8.48484 39.5135 8.60982 39.0014 9.09014 38.2202C9.57045 37.439 10.0106 36.8587 10.4107 36.4793C10.825 36.0864 11.183 35.9775 11.4848 36.1526C12.1576 36.5186 13.0683 37.1068 14.2168 37.9172C15.3796 38.7141 16.378 39.4091 17.2119 40.0022C18.0466 40.5675 18.6897 41.0024 19.1412 41.3068C19.5928 41.6113 20.1814 42.0029 20.9069 42.4817C22.2623 43.3673 23.4213 44.0456 24.3838 44.5168C24.6593 44.6355 24.8541 44.6407 24.9684 44.5323C25.097 44.4103 25.1104 44.1669 25.0086 43.8021C24.9076 43.4094 24.7546 42.8761 24.5496 42.2021C24.3453 41.5003 23.8737 40.3736 23.1348 38.8219C22.4102 37.2567 21.6346 36.0383 20.8081 35.1668C19.5344 33.8238 18.1904 33.2938 16.7761 33.5767C16.6234 33.5587 16.4996 33.4997 16.4047 33.3997C16.3099 33.2997 16.2651 33.1523 16.2702 32.9574C16.3025 32.7911 16.3573 32.5628 16.4346 32.2723C16.4984 31.9676 16.7208 31.4581 17.1018 30.7439C17.4693 30.0155 17.8745 29.4412 18.3174 29.0212C18.7603 28.6011 19.0856 28.4147 19.2933 28.462C19.4874 28.495 19.7335 28.6686 20.0316 28.983C21.346 30.3688 22.6796 32.6048 24.0325 35.6909C25.3862 38.7492 26.432 41.5973 27.17 44.2354C27.9087 46.8456 28.2595 48.589 28.2224 49.4655C28.1828 49.9101 28.1415 50.1528 28.0986 50.1934C27.9701 50.3154 27.7538 50.3305 27.4498 50.2389C26.1917 49.8853 24.1522 48.7936 21.3314 46.964C20.0174 46.0935 19.2711 45.6071 19.0928 45.5049C18.9144 45.4027 18.811 45.3651 18.7824 45.3922C18.7109 45.46 18.7144 45.5924 18.7928 45.7895C19.3903 47.421 19.9103 49.0852 20.3529 50.7823C20.7819 52.465 21.0613 53.7469 21.1912 54.6278L21.4075 55.9288C21.4543 56.2644 21.4063 56.4999 21.2634 56.6354C21.1205 56.7709 20.9039 56.7999 20.6134 56.7226C19.5366 56.3598 17.7305 55.3997 15.195 53.8423L13.9001 53.035C13.6533 52.8891 13.0098 52.4682 11.9697 51.7721C8.00111 49.1042 5.41708 47.5385 4.21759 47.075C3.54185 46.8203 3.0505 46.7028 2.74356 46.7226C2.4509 46.7288 2.24102 46.765 2.11391 46.8313C1.889 46.9089 1.72912 46.8977 1.63427 46.7977C1.52587 46.6834 1.4814 46.522 1.50084 46.3136C1.55034 46.0224 1.78667 45.5133 2.20983 44.7863C2.61945 44.0451 3.02428 43.4847 3.42431 43.1053C3.82435 42.7259 4.17526 42.6238 4.47705 42.7989C5.26414 43.0565 6.72454 43.9239 8.85824 45.4011C13.3311 48.4862 16.2347 50.3459 17.5689 50.9802C17.8301 51.1124 18.0249 51.1176 18.1535 50.9956C18.2821 50.8737 18.2948 50.6581 18.1915 50.349C18.1982 50.0985 17.9807 49.3684 17.5392 48.1589C17.0984 46.9215 16.7729 46.0633 16.5627 45.5842Z" fill="#053D60" fill-opacity="0.75" shape-rendering="crispEdges"/>
</g>
<g filter="url(#filter2_d_24_470)">
<path d="M33.218 35.819L33.6513 36.4176C33.7167 36.516 33.815 36.5216 33.9462 36.4344C34.4383 36.0365 34.8103 35.6001 35.0622 35.1254C35.3032 34.6342 35.4295 34.1839 35.441 33.7743C35.4314 32.9059 35.2958 32.2395 35.0343 31.7749L34.8628 31.4633C34.2743 30.5778 33.6274 30.3693 32.9222 30.8379C32.3974 31.1867 32.1236 31.6996 32.1008 32.3768C32.0391 33.458 32.4116 34.6054 33.218 35.819ZM40.7549 35.5269C41.1691 36.1501 41.403 36.7867 41.4566 37.4366C41.5158 38.0593 41.4577 38.5944 41.2823 39.042C41.1123 39.4623 40.8578 39.8797 40.5186 40.2942C40.0864 40.8179 39.6243 41.2432 39.1323 41.5701C37.7547 42.4856 36.3947 42.6447 35.0521 42.0475C33.7095 41.4502 32.5096 40.3562 31.4525 38.7655C30.3844 37.1583 29.8381 35.4645 29.8134 33.6841C29.8051 31.8928 30.6127 30.4577 32.2363 29.3788C33.7122 28.3979 35.0559 28.2497 36.2673 28.9341C36.742 29.186 37.0993 29.4924 37.3391 29.8532C37.5679 30.1976 37.7368 30.4873 37.8457 30.7223C37.9437 30.9408 38.0305 31.3205 38.1062 31.8613C38.1818 32.4021 38.1646 32.9454 38.0546 33.4914C37.9446 34.0374 37.6351 34.6923 37.1261 35.4561C36.6171 36.2199 35.9197 36.9671 35.0339 37.6976C34.9027 37.7848 34.8752 37.8858 34.9515 38.0005C35.0496 38.1481 35.2459 38.3368 35.5405 38.5666C35.8406 38.7692 36.1216 38.9252 36.3836 39.0348C37.0495 39.2542 37.7351 39.1296 38.4403 38.661C39.1454 38.1924 39.5914 37.565 39.7783 36.7788C39.8772 36.3585 39.8888 35.9134 39.813 35.4436C39.7914 35.2688 39.8298 35.1487 39.9282 35.0834C40.043 35.0071 40.1931 35.0373 40.3786 35.1741C40.5641 35.3109 40.6895 35.4285 40.7549 35.5269Z" fill="#053D60" fill-opacity="0.75" shape-rendering="crispEdges"/>
</g>
<g filter="url(#filter3_d_24_470)">
<path d="M50.4603 15.8008C49.7737 18.1983 49.487 20.4294 49.6002 22.4939L49.6275 22.4826C52.1541 21.4304 53.603 20.8377 53.9742 20.7044C54.3559 20.5455 54.5574 20.4403 54.5786 20.3888C54.5998 20.3373 54.6081 20.2805 54.6036 20.2184C53.3635 18.1112 52.486 16.6956 51.9712 15.9715C51.4488 15.2292 51.0967 14.8959 50.9149 14.9716C50.7331 15.0473 50.5816 15.3237 50.4603 15.8008ZM53.3816 29.6537L53.9361 29.2949C54.1179 29.2192 54.2504 29.2813 54.3336 29.4813C54.5986 30.1175 54.6946 30.7067 54.6218 31.2489C54.549 31.7912 54.3596 32.2327 54.0536 32.5734C53.5642 33.1398 53.1014 33.5138 52.6651 33.6955C51.829 34.0437 51.0732 33.9958 50.3977 33.5519C49.7147 33.0898 49.112 32.2316 48.5897 30.9774C48.0598 29.7049 47.7202 27.916 47.5707 25.6107L45.9892 26.2692C45.7893 26.3525 45.6477 26.2942 45.5644 26.0942C45.4811 25.8943 45.5032 25.5118 45.6305 24.9469C45.7503 24.3637 45.9829 24.0003 46.3282 23.8565L47.5552 23.3455C47.6498 19.936 48.1344 16.8227 49.0089 14.0056C49.2362 13.271 49.5787 12.5312 50.0363 11.7861C50.512 11.0334 50.9317 10.5813 51.2952 10.4299C51.6588 10.2785 51.9996 10.3286 52.3176 10.5801C53.1082 11.1467 54.8245 13.7061 57.4667 18.2582C58.5478 20.2396 59.8136 22.2294 61.2643 24.2275C62.7256 26.1999 63.7591 27.2732 64.3649 27.4476C64.5043 27.4748 64.5967 27.543 64.6421 27.6521C64.7556 27.9247 64.4708 28.342 63.7876 28.9038C63.1225 29.458 62.5809 29.8222 62.1629 29.9963C61.7629 30.1628 61.4312 30.237 61.1677 30.2188C60.9117 30.2187 60.7337 30.1755 60.6338 30.0891C60.0114 29.5165 58.9802 27.9622 57.5402 25.4264L56.843 24.213C56.4145 23.3889 56.0731 22.7739 55.8187 22.3679L55.571 22.3111L49.861 24.6569C50.029 25.6748 50.2567 26.5291 50.5444 27.2199C50.832 27.9106 51.0622 28.412 51.2348 28.7241C51.418 29.0104 51.7126 29.2823 52.1184 29.5399C52.5243 29.7975 52.9454 29.8354 53.3816 29.6537Z" fill="#053D60" fill-opacity="0.75" shape-rendering="crispEdges"/>
</g>
<g filter="url(#filter4_d_24_470)">
<path d="M73.1534 17.944L73.532 18.9131C73.6277 19.2748 73.3329 19.5463 72.6476 19.7276C71.2579 20.0952 70.4247 19.7555 70.1477 18.7085C70.0822 18.4611 70.0582 18.1008 70.0757 17.6277C70.0931 17.1546 70.059 16.7563 69.9734 16.4327C69.8878 16.1091 69.7196 15.8582 69.4688 15.6802C69.213 15.4831 68.9042 15.4323 68.5426 15.528C68.1809 15.6237 67.902 15.84 67.706 16.177C67.524 16.49 67.4397 16.7872 67.4531 17.0688L67.4446 17.4988C67.4865 18.1191 67.6913 19.1241 68.0589 20.5137C68.4214 21.8843 68.7275 22.9643 68.9771 23.7538C69.2216 24.5242 69.4032 25.0566 69.5218 25.3511C69.6354 25.6266 69.6998 25.7929 69.7149 25.85C69.8408 26.3259 69.6464 26.7846 69.1319 27.2263C68.6223 27.687 68.0725 27.9954 67.4824 28.1515C66.8923 28.3076 66.5645 28.2619 66.499 28.0144L66.4076 27.0915C66.236 25.3649 65.7977 23.169 65.0928 20.504C64.3878 17.839 63.8142 16.0558 63.3721 15.1543C63.3116 14.9259 63.4813 14.7588 63.8811 14.6531C64.909 14.3811 65.6874 14.552 66.2164 15.1657C66.2556 15.2368 66.2942 15.2673 66.3323 15.2573C66.3894 15.2421 66.5 15.1212 66.6641 14.8945C67.1563 14.2144 67.8307 13.761 68.6873 13.5344C69.2203 13.3934 69.781 13.3571 70.3694 13.4255C71.5703 13.5763 72.3545 14.3465 72.7221 15.7361L73.1534 17.944Z" fill="#053D60" fill-opacity="0.75" shape-rendering="crispEdges"/>
</g>
<g filter="url(#filter5_d_24_470)">
<path d="M78.9724 17.3088L79.1141 18.0341C79.1321 18.1508 79.2189 18.1972 79.3746 18.1733C79.9883 18.0189 80.5093 17.7793 80.9374 17.4543C81.3624 17.1099 81.6663 16.7543 81.8488 16.3875C82.205 15.5955 82.362 14.9337 82.32 14.4023L82.2952 14.0475C82.1333 12.9966 81.634 12.5356 80.7971 12.6645C80.1744 12.7605 79.7104 13.1109 79.4051 13.7158C78.8948 14.671 78.7506 15.8687 78.9724 17.3088ZM85.9344 20.2109C86.0483 20.9504 85.993 21.6263 85.7686 22.2387C85.5606 22.8285 85.283 23.2897 84.9358 23.6221C84.605 23.9321 84.1986 24.2039 83.7166 24.4375C83.1044 24.7311 82.5063 24.9228 81.9225 25.0128C80.2878 25.2646 78.9867 24.8375 78.0194 23.7313C77.0521 22.6252 76.423 21.1283 76.1322 19.2406C75.8384 17.3334 76.0543 15.5668 76.78 13.9409C77.5252 12.3119 78.8612 11.349 80.7878 11.0522C82.5393 10.7824 83.8209 11.2125 84.6325 12.3426C84.9575 12.7707 85.1529 13.1988 85.2189 13.627C85.2818 14.0357 85.3133 14.3695 85.3134 14.6285C85.3105 14.868 85.2297 15.249 85.0711 15.7715C84.9125 16.294 84.6686 16.7799 84.3394 17.2291C84.0101 17.6783 83.454 18.1425 82.6712 18.6217C81.8883 19.1009 80.9415 19.4858 79.8308 19.7765C79.6751 19.8005 79.6077 19.8806 79.6287 20.0168C79.6557 20.192 79.7546 20.4457 79.9253 20.778C80.1125 21.0879 80.3019 21.3476 80.4936 21.5571C81.0057 22.0361 81.6801 22.2111 82.517 22.0821C83.3538 21.9532 84.0222 21.5713 84.522 20.9365C84.7884 20.5966 84.986 20.1976 85.1146 19.7395C85.1685 19.5718 85.2538 19.4789 85.3706 19.461C85.5068 19.44 85.6303 19.5305 85.7411 19.7326C85.852 19.9347 85.9164 20.0941 85.9344 20.2109Z" fill="#053D60" fill-opacity="0.75" shape-rendering="crispEdges"/>
</g>
<g filter="url(#filter6_d_24_470)">
<path d="M100.065 10.1058L100.051 10.5191L105.276 10.694L105.278 10.6349C105.314 10.1633 105.343 9.57321 105.367 8.86475C105.392 8.1366 105.403 7.50652 105.401 6.97451C105.4 6.42282 105.395 5.95969 105.388 5.58512C105.381 5.21055 105.363 4.88485 105.332 4.60801C105.322 4.33184 105.309 4.12454 105.294 3.98613C105.28 3.82803 105.274 3.68995 105.278 3.57187C105.282 3.45379 105.395 3.31965 105.617 3.16946C106.583 2.57133 107.646 2.2917 108.807 2.33056C109.535 2.35494 109.895 2.49504 109.887 2.75088C109.886 2.77055 109.863 2.87813 109.817 3.07361C109.38 4.93066 109.057 7.51063 108.848 10.8135C108.679 14.1177 108.59 15.8879 108.582 16.1241C108.48 19.1744 108.586 21.2959 108.901 22.4885C108.955 22.6479 108.979 22.7867 108.976 22.9048C108.972 23.0032 108.89 23.1186 108.727 23.2511C107.984 23.699 107.031 23.9036 105.87 23.8647C105.122 23.8397 104.708 23.5697 104.626 23.0547C104.576 22.7772 104.561 22.3531 104.58 21.7824C104.6 21.192 104.659 20.2976 104.759 19.0991C104.878 17.9013 105.007 15.8074 105.146 12.8174L99.9803 12.6445C99.8301 17.1314 99.8625 20.2848 100.077 22.1045C100.062 22.5769 99.5961 22.9455 98.681 23.2104C97.7652 23.4949 97.0121 23.6273 96.4217 23.6076C95.8313 23.5878 95.5391 23.4894 95.545 23.3123C95.549 23.1942 95.5834 23.0476 95.6484 22.8724C96.05 22.0584 96.3483 18.7388 96.5432 12.9136L96.5561 12.5299L94.8144 12.4716C94.657 12.4663 94.5802 12.4046 94.5842 12.2865C94.5855 12.2472 94.6298 12.1009 94.7171 11.8477C94.805 11.5748 94.9927 11.2659 95.2801 10.9209C95.5871 10.5765 95.9178 10.4103 96.272 10.4221L96.5967 10.433C96.7265 6.5561 96.5749 4.31489 96.1421 3.70935L96.0299 3.52828C95.9151 3.42593 95.86 3.30588 95.8646 3.16812C95.8699 3.01068 95.9824 2.88639 96.2022 2.79523C96.5033 2.628 97.0308 2.46834 97.7845 2.31625C98.558 2.16482 99.2497 2.09932 99.8598 2.11974C100.47 2.14016 100.77 2.28813 100.761 2.56364L100.758 2.6522C100.453 4.69098 100.222 7.17551 100.065 10.1058Z" fill="#053D60" fill-opacity="0.75" shape-rendering="crispEdges"/>
</g>
<g filter="url(#filter7_d_24_470)">
<path d="M115.749 17.0157L115.656 17.7488C115.637 17.8654 115.705 17.9367 115.86 17.9627C116.491 18.0087 117.061 17.9446 117.569 17.7703C118.081 17.5766 118.481 17.3342 118.77 17.0432C119.356 16.4029 119.713 15.8238 119.84 15.306L119.927 14.9613C120.103 13.9127 119.774 13.3183 118.939 13.1783C118.317 13.074 117.767 13.2612 117.287 13.7398C116.503 14.4867 115.99 15.5787 115.749 17.0157ZM121.45 21.9552C121.326 22.6931 121.061 23.3176 120.656 23.8286C120.274 24.3235 119.865 24.6743 119.431 24.881C119.02 25.0716 118.549 25.2022 118.018 25.2728C117.345 25.3595 116.717 25.354 116.134 25.2563C114.503 24.9826 113.401 24.1689 112.83 22.8152C112.258 21.4615 112.131 19.8428 112.447 17.9591C112.766 16.056 113.525 14.4463 114.724 13.1301C115.943 11.8171 117.513 11.3219 119.436 11.6444C121.183 11.9376 122.265 12.748 122.682 14.0757C122.856 14.5841 122.907 15.0519 122.835 15.4791C122.767 15.8869 122.692 16.2138 122.611 16.4597C122.533 16.6863 122.337 17.0227 122.022 17.4691C121.708 17.9155 121.324 18.3003 120.87 18.6235C120.417 18.9468 119.743 19.2131 118.85 19.4226C117.956 19.6321 116.936 19.7006 115.79 19.6281C115.635 19.6021 115.546 19.657 115.523 19.793C115.494 19.9677 115.508 20.2397 115.566 20.6088C115.647 20.9617 115.745 21.2677 115.861 21.5268C116.197 22.1422 116.783 22.5199 117.618 22.66C118.453 22.8001 119.207 22.6471 119.881 22.2011C120.241 21.962 120.553 21.6451 120.819 21.2504C120.923 21.1081 121.033 21.0467 121.15 21.0662C121.285 21.089 121.374 21.2138 121.416 21.4404C121.458 21.6671 121.469 21.8386 121.45 21.9552Z" fill="#053D60" fill-opacity="0.75" shape-rendering="crispEdges"/>
</g>
<g filter="url(#filter8_d_24_470)">
<path d="M133.667 20.7404L133.504 21.768C133.403 22.1284 133.012 22.2136 132.329 22.0236C130.944 21.6383 130.397 20.9239 130.687 19.8806C130.756 19.634 130.917 19.311 131.171 18.9116C131.426 18.5123 131.598 18.1514 131.687 17.8289C131.777 17.5064 131.759 17.2049 131.632 16.9245C131.511 16.6251 131.27 16.4253 130.91 16.325C130.55 16.2247 130.2 16.2704 129.86 16.462C129.545 16.64 129.322 16.8539 129.191 17.1036L128.966 17.4703C128.689 18.0267 128.358 18.9973 127.972 20.3822C127.592 21.748 127.31 22.8346 127.127 23.6419C126.948 24.4302 126.836 24.9814 126.789 25.2955C126.748 25.5906 126.719 25.7666 126.703 25.8235C126.572 26.2977 126.172 26.5953 125.505 26.7162C124.832 26.8561 124.202 26.8442 123.614 26.6806C123.026 26.517 122.766 26.3119 122.835 26.0652L123.222 25.2227C123.947 23.6462 124.679 21.5301 125.418 18.8743C126.157 16.2185 126.564 14.39 126.638 13.3887C126.701 13.161 126.932 13.1026 127.33 13.2135C128.355 13.4985 128.94 14.0395 129.086 14.8364C129.084 14.9176 129.102 14.9634 129.14 14.974C129.197 14.9898 129.353 14.9414 129.61 14.8287C130.378 14.4907 131.189 14.4405 132.043 14.678C132.574 14.8258 133.076 15.078 133.549 15.4344C134.509 16.1716 134.796 17.2326 134.411 18.6174L133.667 20.7404Z" fill="#053D60" fill-opacity="0.75" shape-rendering="crispEdges"/>
</g>
<g filter="url(#filter9_d_24_470)">
<path d="M138.978 23.1267L138.733 23.8239C138.69 23.9337 138.741 24.0176 138.888 24.0758C139.495 24.2534 140.066 24.3104 140.599 24.2469C141.14 24.165 141.582 24.0122 141.925 23.7882C142.633 23.2855 143.104 22.7943 143.337 22.3147L143.495 21.9962C143.887 21.0079 143.69 20.3576 142.903 20.0451C142.317 19.8126 141.74 19.8799 141.17 20.247C140.247 20.8125 139.516 21.7724 138.978 23.1267ZM143.513 29.1537C143.237 29.8491 142.847 30.4041 142.344 30.8186C141.866 31.222 141.393 31.4792 140.925 31.5901C140.483 31.6899 139.995 31.7186 139.461 31.6761C138.784 31.6193 138.172 31.482 137.623 31.264C136.085 30.6537 135.18 29.6267 134.905 28.1831C134.631 26.7395 134.846 25.1301 135.551 23.3549C136.263 21.5614 137.344 20.1472 138.793 19.1123C140.26 18.0848 141.899 17.9306 143.711 18.65C145.358 19.3039 146.246 20.3236 146.374 21.7091C146.437 22.2427 146.389 22.7109 146.229 23.1135C146.077 23.4978 145.935 23.8017 145.804 24.0251C145.68 24.2302 145.417 24.5179 145.016 24.8882C144.615 25.2585 144.159 25.5541 143.647 25.7748C143.136 25.9955 142.421 26.1143 141.504 26.1313C140.586 26.1483 139.574 26.001 138.469 25.6893C138.323 25.6312 138.224 25.6662 138.173 25.7943C138.108 25.959 138.065 26.2279 138.044 26.6009C138.049 26.9629 138.08 27.2827 138.14 27.5605C138.339 28.2328 138.832 28.7251 139.619 29.0375C140.406 29.35 141.175 29.359 141.928 29.0645C142.33 28.9063 142.702 28.6622 143.045 28.3322C143.176 28.2148 143.297 28.178 143.407 28.2216C143.535 28.2724 143.595 28.413 143.589 28.6434C143.582 28.8738 143.557 29.0439 143.513 29.1537Z" fill="#053D60" fill-opacity="0.75" shape-rendering="crispEdges"/>
</g>
<g filter="url(#filter10_d_24_470)">
<path d="M147.5 32.332L148.145 32.6255C148.567 32.8388 148.799 33.0776 148.842 33.342C148.912 33.5977 148.826 33.9627 148.586 34.4372C148.355 34.8941 148.081 35.1746 147.764 35.2788C147.455 35.4095 147.002 35.3238 146.404 35.0217C145.824 34.7285 145.469 34.4054 145.339 34.0526C145.226 33.7086 145.365 33.1501 145.756 32.3769C146.147 31.6038 146.456 31.275 146.685 31.3905L146.868 31.748C146.99 31.9863 147.201 32.181 147.5 32.332ZM153.542 16.5218C153.569 16.4251 153.626 16.2888 153.715 16.1131C153.804 15.9374 154.034 15.8328 154.404 15.7992C154.791 15.7746 155.196 15.8248 155.618 15.95C156.357 16.1471 156.928 16.3478 157.333 16.5522C157.737 16.7566 157.85 17.0345 157.672 17.3859L157.46 17.6756C155.388 20.1142 153.077 23.8551 150.527 28.8982C150.242 29.4605 150.065 29.8339 149.993 30.0185C149.931 30.1856 149.878 30.291 149.833 30.3348C149.789 30.3787 149.653 30.4089 149.424 30.4254C149.221 30.4333 148.979 30.3662 148.698 30.224C148.083 29.913 147.869 29.551 148.056 29.138C151.21 22.9 153.039 18.6946 153.542 16.5218Z" fill="#053D60" fill-opacity="0.75" shape-rendering="crispEdges"/>
</g>
</g>
</g>
<defs>
<filter id="filter0_d_24_470" x="-3.36166" y="1.86618" width="170.271" height="182.509" filterUnits="userSpaceOnUse" color-interpolation-filters="sRGB">
<feFlood flood-opacity="0" result="BackgroundImageFix"/>
<feColorMatrix in="SourceAlpha" type="matrix" values="0 0 0 0 0 0 0 0 0 0 0 0 0 0 0 0 0 0 127 0" result="hardAlpha"/>
<feOffset dy="4"/>
<feGaussianBlur stdDeviation="2"/>
<feComposite in2="hardAlpha" operator="out"/>
<feColorMatrix type="matrix" values="0 0 0 0 0 0 0 0 0 0 0 0 0 0 0 0 0 0 0.25 0"/>
<feBlend mode="normal" in2="BackgroundImageFix" result="effect1_dropShadow_24_470"/>
<feBlend mode="normal" in="SourceGraphic" in2="effect1_dropShadow_24_470" result="shape"/>
</filter>
<filter id="filter1_d_24_470" x="-5.04166" y="28.1257" width="45.1637" height="45.0333" filterUnits="userSpaceOnUse" color-interpolation-filters="sRGB">
<feFlood flood-opacity="0" result="BackgroundImageFix"/>
<feColorMatrix in="SourceAlpha" type="matrix" values="0 0 0 0 0 0 0 0 0 0 0 0 0 0 0 0 0 0 127 0" result="hardAlpha"/>
<feOffset dy="5.68"/>
<feGaussianBlur stdDeviation="2.84"/>
<feComposite in2="hardAlpha" operator="out"/>
<feColorMatrix type="matrix" values="0 0 0 0 0 0 0 0 0 0 0 0 0 0 0 0 0 0 0.25 0"/>
<feBlend mode="normal" in2="BackgroundImageFix" result="effect1_dropShadow_24_470"/>
<feBlend mode="normal" in="SourceGraphic" in2="effect1_dropShadow_24_470" result="shape"/>
</filter>
<filter id="filter2_d_24_470" x="21.6856" y="27.1718" width="27.284" height="28.4393" filterUnits="userSpaceOnUse" color-interpolation-filters="sRGB">
<feFlood flood-opacity="0" result="BackgroundImageFix"/>
<feColorMatrix in="SourceAlpha" type="matrix" values="0 0 0 0 0 0 0 0 0 0 0 0 0 0 0 0 0 0 127 0" result="hardAlpha"/>
<feOffset dy="5.68"/>
<feGaussianBlur stdDeviation="2.84"/>
<feComposite in2="hardAlpha" operator="out"/>
<feColorMatrix type="matrix" values="0 0 0 0 0 0 0 0 0 0 0 0 0 0 0 0 0 0 0.25 0"/>
<feBlend mode="normal" in2="BackgroundImageFix" result="effect1_dropShadow_24_470"/>
<feBlend mode="normal" in="SourceGraphic" in2="effect1_dropShadow_24_470" result="shape"/>
</filter>
<filter id="filter3_d_24_470" x="35.1723" y="8.23849" width="35.6153" height="38.4317" filterUnits="userSpaceOnUse" color-interpolation-filters="sRGB">
<feFlood flood-opacity="0" result="BackgroundImageFix"/>
<feColorMatrix in="SourceAlpha" type="matrix" values="0 0 0 0 0 0 0 0 0 0 0 0 0 0 0 0 0 0 127 0" result="hardAlpha"/>
<feOffset dy="5.68"/>
<feGaussianBlur stdDeviation="2.84"/>
<feComposite in2="hardAlpha" operator="out"/>
<feColorMatrix type="matrix" values="0 0 0 0 0 0 0 0 0 0 0 0 0 0 0 0 0 0 0.25 0"/>
<feBlend mode="normal" in2="BackgroundImageFix" result="effect1_dropShadow_24_470"/>
<feBlend mode="normal" in="SourceGraphic" in2="effect1_dropShadow_24_470" result="shape"/>
</filter>
<filter id="filter4_d_24_470" x="57.3444" y="12.5381" width="23.7845" height="27.2075" filterUnits="userSpaceOnUse" color-interpolation-filters="sRGB">
<feFlood flood-opacity="0" result="BackgroundImageFix"/>
<feColorMatrix in="SourceAlpha" type="matrix" values="0 0 0 0 0 0 0 0 0 0 0 0 0 0 0 0 0 0 127 0" result="hardAlpha"/>
<feOffset dy="5.68"/>
<feGaussianBlur stdDeviation="2.84"/>
<feComposite in2="hardAlpha" operator="out"/>
<feColorMatrix type="matrix" values="0 0 0 0 0 0 0 0 0 0 0 0 0 0 0 0 0 0 0.25 0"/>
<feBlend mode="normal" in2="BackgroundImageFix" result="effect1_dropShadow_24_470"/>
<feBlend mode="normal" in="SourceGraphic" in2="effect1_dropShadow_24_470" result="shape"/>
</filter>
<filter id="filter5_d_24_470" x="69.3279" y="10.4451" width="23.208" height="26.6652" filterUnits="userSpaceOnUse" color-interpolation-filters="sRGB">
<feFlood flood-opacity="0" result="BackgroundImageFix"/>
<feColorMatrix in="SourceAlpha" type="matrix" values="0 0 0 0 0 0 0 0 0 0 0 0 0 0 0 0 0 0 127 0" result="hardAlpha"/>
<feOffset dy="5.68"/>
<feGaussianBlur stdDeviation="2.84"/>
<feComposite in2="hardAlpha" operator="out"/>
<feColorMatrix type="matrix" values="0 0 0 0 0 0 0 0 0 0 0 0 0 0 0 0 0 0 0.25 0"/>
<feBlend mode="normal" in2="BackgroundImageFix" result="effect1_dropShadow_24_470"/>
<feBlend mode="normal" in="SourceGraphic" in2="effect1_dropShadow_24_470" result="shape"/>
</filter>
<filter id="filter6_d_24_470" x="88.5277" y="1.86618" width="27.0516" height="33.5282" filterUnits="userSpaceOnUse" color-interpolation-filters="sRGB">
<feFlood flood-opacity="0" result="BackgroundImageFix"/>
<feColorMatrix in="SourceAlpha" type="matrix" values="0 0 0 0 0 0 0 0 0 0 0 0 0 0 0 0 0 0 127 0" result="hardAlpha"/>
<feOffset dy="5.68"/>
<feGaussianBlur stdDeviation="2.84"/>
<feComposite in2="hardAlpha" operator="out"/>
<feColorMatrix type="matrix" values="0 0 0 0 0 0 0 0 0 0 0 0 0 0 0 0 0 0 0.25 0"/>
<feBlend mode="normal" in2="BackgroundImageFix" result="effect1_dropShadow_24_470"/>
<feBlend mode="normal" in="SourceGraphic" in2="effect1_dropShadow_24_470" result="shape"/>
</filter>
<filter id="filter7_d_24_470" x="105.677" y="10.6768" width="23.3713" height="26.7652" filterUnits="userSpaceOnUse" color-interpolation-filters="sRGB">
<feFlood flood-opacity="0" result="BackgroundImageFix"/>
<feColorMatrix in="SourceAlpha" type="matrix" values="0 0 0 0 0 0 0 0 0 0 0 0 0 0 0 0 0 0 127 0" result="hardAlpha"/>
<feOffset dy="5.68"/>
<feGaussianBlur stdDeviation="2.84"/>
<feComposite in2="hardAlpha" operator="out"/>
<feColorMatrix type="matrix" values="0 0 0 0 0 0 0 0 0 0 0 0 0 0 0 0 0 0 0.25 0"/>
<feBlend mode="normal" in2="BackgroundImageFix" result="effect1_dropShadow_24_470"/>
<feBlend mode="normal" in="SourceGraphic" in2="effect1_dropShadow_24_470" result="shape"/>
</filter>
<filter id="filter8_d_24_470" x="117.052" y="12.976" width="23.9261" height="27.2737" filterUnits="userSpaceOnUse" color-interpolation-filters="sRGB">
<feFlood flood-opacity="0" result="BackgroundImageFix"/>
<feColorMatrix in="SourceAlpha" type="matrix" values="0 0 0 0 0 0 0 0 0 0 0 0 0 0 0 0 0 0 127 0" result="hardAlpha"/>
<feOffset dy="5.68"/>
<feGaussianBlur stdDeviation="2.84"/>
<feComposite in2="hardAlpha" operator="out"/>
<feColorMatrix type="matrix" values="0 0 0 0 0 0 0 0 0 0 0 0 0 0 0 0 0 0 0.25 0"/>
<feBlend mode="normal" in2="BackgroundImageFix" result="effect1_dropShadow_24_470"/>
<feBlend mode="normal" in="SourceGraphic" in2="effect1_dropShadow_24_470" result="shape"/>
</filter>
<filter id="filter9_d_24_470" x="127.441" y="16.492" width="25.6566" height="27.9739" filterUnits="userSpaceOnUse" color-interpolation-filters="sRGB">
<feFlood flood-opacity="0" result="BackgroundImageFix"/>
<feColorMatrix in="SourceAlpha" type="matrix" values="0 0 0 0 0 0 0 0 0 0 0 0 0 0 0 0 0 0 127 0" result="hardAlpha"/>
<feOffset dy="5.68"/>
<feGaussianBlur stdDeviation="2.84"/>
<feComposite in2="hardAlpha" operator="out"/>
<feColorMatrix type="matrix" values="0 0 0 0 0 0 0 0 0 0 0 0 0 0 0 0 0 0 0.25 0"/>
<feBlend mode="normal" in2="BackgroundImageFix" result="effect1_dropShadow_24_470"/>
<feBlend mode="normal" in="SourceGraphic" in2="effect1_dropShadow_24_470" result="shape"/>
</filter>
<filter id="filter10_d_24_470" x="138.932" y="15.0061" width="24.687" height="32.3219" filterUnits="userSpaceOnUse" color-interpolation-filters="sRGB">
<feFlood flood-opacity="0" result="BackgroundImageFix"/>
<feColorMatrix in="SourceAlpha" type="matrix" values="0 0 0 0 0 0 0 0 0 0 0 0 0 0 0 0 0 0 127 0" result="hardAlpha"/>
<feOffset dy="5.68"/>
<feGaussianBlur stdDeviation="2.84"/>
<feComposite in2="hardAlpha" operator="out"/>
<feColorMatrix type="matrix" values="0 0 0 0 0 0 0 0 0 0 0 0 0 0 0 0 0 0 0.25 0"/>
<feBlend mode="normal" in2="BackgroundImageFix" result="effect1_dropShadow_24_470"/>
<feBlend mode="normal" in="SourceGraphic" in2="effect1_dropShadow_24_470" result="shape"/>
</filter>
<clipPath id="clip0_24_470">
<rect width="162.909" height="176.375" fill="white"/>
</clipPath>
</defs>
</svg>
