<svg width="70" height="66" viewBox="0 0 70 66" fill="none" xmlns="http://www.w3.org/2000/svg">
<path d="M45.2697 20.7551H48.7289V15.5663H62.5656V20.7551H66.0248C67.9274 20.7551 69.484 22.3117 69.484 24.2143V62.2653C69.484 64.1679 67.9274 65.7245 66.0248 65.7245H45.2697C43.3671 65.7245 41.8105 64.1679 41.8105 62.2653V24.2143C41.8105 22.3117 43.3671 20.7551 45.2697 20.7551ZM48.7289 27.6735V38.051H62.5656V27.6735H48.7289ZM34.8921 9.30521L17.5962 24.8715V51.8878H34.8921V58.8061H10.6778V31.1327H0.300293L34.8921 0L44.5087 8.64796H41.8105V14.4248L40.9803 14.7707L34.8921 9.30521Z" fill="#053D60" fill-opacity="0.75"/>
</svg>
